# xmcd CD database file
#
# Track frame offsets:
#	150
#	20532
#	48644
#	73534
#
# Disc length: 1249 seconds
#
# Revision: 0
# Processed by: cddbd v1.5.1PL2 Copyright (c) Steve Scherf et al.
# Submitted via: CDex 1.51
#
DISCID=3104df04
DTITLE=yozuca* - 君とあしたへ
DYEAR=2006
DGENRE=Game
TTITLE0=君とあしたへ
TTITLE1=君とあしたへ 〜Traditional Euro Mix〜
TTITLE2=君とあしたへ 〜LUVNOTE MIX〜
TTITLE3=君とあしたへ *karaoke
EXTD=YEAR: 2006/04/26
EXTT0=
EXTT1=
EXTT2=
EXTT3=
PLAYORDER=
